<svg width="120" height="140" fill="none" xmlns="http://www.w3.org/2000/svg"><g filter="url(#face-welcome_svg__filter0_i_369_80)"><rect y="19.091" width="120" height="120" rx="60" fill="#F0F0F0"></rect></g><path d="M106.46 49.432a5.961 5.961 0 002.512-4.856 5.918 5.918 0 00-4.254-5.693c1.273-1.105 2.11-2.713 2.11-4.555 0-3.048-2.311-5.56-5.258-5.928.503-.87.771-1.842.771-2.914 0-3.282-2.68-5.96-5.962-5.96-.603 0-1.206.1-1.741.267.2-.57.301-1.206.301-1.842 0-3.282-2.68-5.961-5.961-5.961-.904 0-1.742.2-2.512.569.033-.167.033-.368.033-.57 0-3.281-2.679-5.96-5.96-5.96A5.993 5.993 0 0077.121 7.1a5.998 5.998 0 00-5.86-4.756c-1.977 0-3.718.972-4.823 2.445C65.6 2.48 63.424.837 60.846.837c-2.546 0-4.723 1.608-5.593 3.885-1.106-1.44-2.814-2.378-4.756-2.378-3.282 0-9.712 7.87-4.454 19.76-14.1-4.823-25.822.1-25.822 3.382 0 1.039.268 2.043.737 2.88-3.148.202-5.66 2.78-5.66 5.962 0 1.775.77 3.35 1.976 4.42a5.962 5.962 0 00-4.655 5.828c0 2.311 1.34 4.32 3.248 5.325-1.909 1.005-3.248 2.98-3.248 5.292a5.915 5.915 0 003.952 5.593 5.823 5.823 0 00-1.273 3.65 5.96 5.96 0 005.894 5.961 5.873 5.873 0 00-1.004 3.316c0 3.282 2.679 5.962 5.961 5.962a5.91 5.91 0 002.21-.436c5.526 10.315 18.22 3.316 32.989 3.316 14.669 0 27.261 7.133 32.854-3.048.47.134.972.201 1.474.201 3.282 0 5.961-2.68 5.961-5.961 0-1.24-.368-2.345-1.004-3.316h.167c3.282 0 5.961-2.68 5.961-5.961 0-1.775-.803-3.383-2.043-4.488 2.445-.737 4.187-3.014 4.187-5.694a5.818 5.818 0 00-2.445-4.856z" fill="#1E1E1E"></path><path d="M106.862 50.17c2.177-1.608 3.282-4.22 2.78-6.9-.469-2.478-2.378-4.454-4.722-5.191.134.469.234.938.368 1.407 2.077-1.809 2.914-4.89 1.909-7.502-.938-2.445-3.081-4.053-5.693-4.388.234.436.469.838.736 1.273 1.34-2.478 1.106-5.492-.703-7.67-1.741-2.11-4.622-2.913-7.2-2.176l1.038 1.038c.77-2.512.067-5.325-1.876-7.1-2.076-1.876-4.956-2.244-7.501-1.105.435.234.837.469 1.272.736a6.78 6.78 0 00-3.114-6.262c-2.278-1.474-5.259-1.407-7.503.134.402.167.804.335 1.24.502-.536-2.478-2.479-4.521-4.957-5.157-2.746-.704-5.56.401-7.234 2.645.502.067 1.005.134 1.54.201C66.239 1.875 63.727 0 60.847 0s-5.359 1.842-6.397 4.488c.503-.067 1.005-.134 1.54-.201-1.372-1.809-3.75-3.148-6.095-2.746-1.172.2-2.243 1.004-3.047 1.842-2.613 2.645-3.684 6.597-3.617 10.214.033 3.081.87 6.096 2.11 8.909.301-.402.636-.804.937-1.24-5.291-1.774-10.951-2.511-16.477-1.74-1.976.267-3.919.736-5.76 1.506-1.307.536-2.68 1.24-3.684 2.311-.402.435-.77.971-.905 1.574-.301 1.273.201 2.78.804 3.885.235-.435.469-.837.737-1.273-2.612.168-4.923 1.742-5.962 4.153-1.105 2.646-.401 5.727 1.709 7.67.133-.47.234-.938.368-1.407-2.646.603-4.756 2.813-5.191 5.492-.436 2.88.971 5.76 3.55 7.134v-1.44c-2.378 1.273-3.885 3.885-3.617 6.598.268 2.679 2.01 4.923 4.555 5.86a47.125 47.125 0 01-.503-1.239c-1.64 2.144-1.808 5.125-.502 7.435 1.206 2.11 3.45 3.383 5.86 3.45a24.868 24.868 0 00-.736-1.273c-1.641 2.512-1.407 5.828.502 8.105 1.842 2.21 4.99 2.98 7.636 1.943a10.825 10.825 0 00-.938-.369c1.005 1.842 2.378 3.45 4.22 4.488 1.708.971 3.65 1.406 5.627 1.54 2.21.134 4.454-.067 6.631-.368 2.579-.335 5.124-.77 7.703-1.139 2.713-.402 5.459-.703 8.239-.77 2.88-.067 5.727.134 8.573.469 4.923.603 9.813 1.808 14.803 1.909 2.01.033 4.052-.134 5.928-.837 1.909-.737 3.483-1.976 4.722-3.617.335-.436.636-.938.904-1.407-.301.134-.636.268-.937.368a6.814 6.814 0 007.1-2.444c1.741-2.278 1.808-5.46.268-7.837a25.25 25.25 0 01-.737 1.272c2.646.134 5.258-1.54 6.33-3.951 1.205-2.713.536-5.928-1.675-7.904-.134.469-.234.937-.368 1.406 2.344-.77 4.22-2.713 4.688-5.19.503-2.68-.602-5.292-2.779-6.9-.369-.268-.938-.067-1.139.302-.234.435-.067.87.301 1.138 1.574 1.172 2.378 3.215 1.976 5.124a5.192 5.192 0 01-3.483 3.885c-.569.168-.87.971-.368 1.407 1.674 1.507 2.311 3.918 1.34 5.995-.838 1.842-2.78 3.114-4.857 3.014-.636-.034-1.071.737-.736 1.273 1.172 1.841 1.172 4.22-.134 5.96-1.24 1.642-3.35 2.345-5.359 1.876-.368-.1-.77.067-.938.369-.937 1.674-2.177 3.08-3.885 3.952-1.574.803-3.416 1.071-5.19 1.105-4.69.1-9.344-1.038-13.966-1.675-2.747-.402-5.526-.67-8.306-.736-2.746-.034-5.492.167-8.239.502-4.789.57-9.545 1.674-14.367 1.808-1.91.034-3.785-.067-5.56-.737-1.607-.569-3.014-1.674-4.052-3.114a11.577 11.577 0 01-.837-1.373c-.168-.302-.603-.503-.938-.369-2.11.838-4.42.335-5.928-1.406-1.507-1.742-1.54-4.287-.301-6.196.368-.536-.1-1.24-.737-1.273-1.809-.033-3.517-1.004-4.388-2.612-1.038-1.842-.77-4.086.503-5.76.368-.47-.067-1.072-.503-1.24-1.808-.67-3.181-2.41-3.315-4.353-.168-2.11.971-4.02 2.813-4.99.536-.302.536-1.173 0-1.44-1.942-1.039-3.148-3.182-2.78-5.393.335-2.11 1.943-3.717 3.986-4.22.603-.133.837-.97.368-1.406-1.607-1.474-2.21-3.785-1.34-5.827.77-1.775 2.479-3.015 4.421-3.115a.863.863 0 00.737-1.273 5.57 5.57 0 01-.603-1.775c-.033-.234-.033-.502-.033-.736 0-.268-.067.133.033-.135.034-.067.134-.368.034-.1.033-.067.067-.167.1-.234.067-.1.1-.168.168-.268-.134.2.1-.134.167-.168.168-.2.369-.368.57-.536 0 0 .2-.167.067-.033.033-.034.1-.067.167-.1.134-.101.268-.201.435-.302.57-.368 1.273-.703 1.842-.938 3.65-1.54 7.971-1.875 12.024-1.574 3.08.235 6.162.904 9.076 1.91.77.267 1.205-.637.937-1.24-1.741-3.952-2.545-8.54-1.239-12.726.402-1.34 1.139-2.78 1.943-3.751a7.628 7.628 0 011.272-1.273c-.134.1.134-.1.168-.134.1-.067.234-.134.335-.201.1-.067.167-.1.267-.167.068-.034.101-.067.168-.067.134-.067-.167.033.067-.034l.301-.1c.1-.034.47-.067.168-.034.469-.033.904 0 1.373.1 1.139.269 2.21.905 2.914 1.843.469.602 1.272.502 1.54-.201.737-1.943 2.68-3.282 4.756-3.282 2.11 0 4.052 1.34 4.79 3.349.267.703 1.104.803 1.54.2 1.239-1.674 3.483-2.41 5.492-1.841 1.876.535 3.249 2.076 3.65 3.951.101.503.804.804 1.24.503 1.741-1.206 4.019-1.273 5.794-.134 1.64 1.072 2.445 2.914 2.277 4.822-.067.704.737.972 1.273.737 1.842-.837 4.086-.469 5.56.938 1.473 1.407 1.975 3.45 1.372 5.392-.2.603.436 1.206 1.038 1.038a5.176 5.176 0 015.493 1.641c1.34 1.608 1.507 3.919.502 5.76-.335.604.101 1.173.737 1.273 1.842.235 3.483 1.541 4.12 3.283.736 2.076.1 4.286-1.541 5.726-.502.436-.201 1.24.368 1.407a5.222 5.222 0 013.55 3.885c.402 1.909-.402 3.985-1.976 5.158-.368.268-.535.736-.301 1.138.167.302.737.536 1.105.268z" fill="#fff"></path><path d="M60.913 90.995c-6.698 0-20.898-13.464-20.898-33.09 0-14.233 6.798-25.653 20.898-25.653s20.898 11.42 20.898 25.654c-.033 19.625-14.233 33.089-20.898 33.089z" fill="#F0F0F0"></path><path d="M60.913 90.157c-.134 0-.302 0-.436-.033-.067 0-.133-.034-.234-.034h.067c-.034 0-.1 0-.168-.033-.334-.067-.67-.134-1.004-.235-.168-.067-.335-.1-.536-.167-.1-.034-.167-.067-.268-.1-.034-.034-.1-.034-.134-.068-.033 0-.2-.1-.1-.033.1.033-.134-.067-.201-.1a1.004 1.004 0 01-.268-.135l-.603-.301c-1.809-.971-3.215-2.076-4.722-3.483-3.751-3.517-6.631-7.937-8.574-12.693-2.378-5.827-3.316-12.157-2.813-18.42.435-5.124 1.909-10.45 5.09-14.502 3.115-3.985 7.67-6.296 12.693-6.731 5.192-.435 10.584.77 14.502 4.186 3.851 3.35 5.995 8.139 6.966 13.095 1.206 5.995.87 12.358-.804 18.22-1.507 5.257-4.153 10.28-7.703 14.4-.77.87-1.574 1.742-2.411 2.512a23.167 23.167 0 01-2.344 1.942 21.19 21.19 0 01-2.345 1.474c-.167.1-.368.167-.536.268-.1.033-.167.067-.267.134-.034.033-.101.033-.134.067-.168.067.134-.067-.034 0-.335.134-.703.268-1.072.368-.301.1-.636.168-.937.235-.034 0-.1 0-.134.033-.134.034.234-.033.033 0-.067 0-.134 0-.2.034-.068.067-.235.1-.37.1-1.07 0-1.07 1.675 0 1.675 1.608 0 3.182-.603 4.556-1.34 1.841-.971 3.516-2.277 5.023-3.684 3.986-3.717 7.033-8.44 9.076-13.463 2.479-6.029 3.45-12.66 2.847-19.157-.502-5.56-2.11-11.119-5.627-15.54-1.574-1.976-3.55-3.684-5.794-4.856-2.478-1.306-5.19-2.043-7.937-2.277-5.56-.503-11.286.87-15.606 4.555-4.086 3.483-6.464 8.607-7.502 13.798-1.307 6.33-1.005 13.028.77 19.223 1.574 5.593 4.354 10.852 8.172 15.239 1.507 1.741 3.215 3.349 5.09 4.689 1.474 1.071 3.081 2.009 4.823 2.511.67.201 1.373.302 2.076.335 1.105-.033 1.105-1.708.034-1.708z" fill="#1E1E1E"></path><path d="M48.387 69.16c5.271 0 9.545-4.199 9.545-9.378s-4.274-9.377-9.545-9.377c-5.272 0-9.545 4.198-9.545 9.377s4.273 9.377 9.545 9.377z" fill="#fff"></path><path d="M57.094 59.782c-.033 3.584-2.377 6.866-5.76 8.038a8.951 8.951 0 01-9.746-2.68c-2.31-2.746-2.512-6.798-.636-9.846 1.909-3.047 5.66-4.621 9.176-3.918 3.986.837 6.933 4.32 6.966 8.406 0 1.072 1.675 1.072 1.675 0-.033-4.32-2.813-8.138-6.832-9.612-4.019-1.473-8.775-.234-11.52 3.048-2.78 3.315-3.216 8.105-.939 11.822 2.278 3.717 6.732 5.56 10.985 4.756 4.12-.804 7.536-4.22 8.172-8.373a9.04 9.04 0 00.134-1.641c0-1.072-1.675-1.072-1.675 0z" fill="#1E1E1E"></path><path d="M73.27 69.16c5.272 0 9.545-4.199 9.545-9.378s-4.273-9.377-9.545-9.377c-5.271 0-9.545 4.198-9.545 9.377S68 69.159 73.27 69.159z" fill="#fff"></path><path d="M81.978 59.782c-.033 3.584-2.378 6.866-5.76 8.038a8.951 8.951 0 01-9.746-2.68c-2.31-2.746-2.512-6.798-.636-9.846 1.909-3.047 5.66-4.621 9.176-3.918 3.986.837 6.966 4.32 6.966 8.406 0 1.072 1.675 1.072 1.675 0-.034-4.32-2.814-8.138-6.832-9.612-4.02-1.473-8.775-.234-11.521 3.048-2.78 3.315-3.215 8.105-.938 11.822 2.277 3.717 6.732 5.56 10.985 4.756 4.12-.804 7.535-4.22 8.172-8.373a9.04 9.04 0 00.134-1.641c.033-1.072-1.641-1.072-1.675 0z" fill="#1E1E1E"></path><path d="M58.769 60.585c0-.1 0-.2.033-.301-.033.134 0-.034.034-.067.033-.067.033-.134.067-.235 0-.033.033-.1.033-.134-.033.067-.033.067 0 .034.067-.134.168-.268.234-.435.101-.168-.066.066.034-.067l.201-.201c.067-.067.1-.1.167-.134-.134.1.067-.034.067-.034.067-.033.134-.1.235-.134.033 0 .268-.134.1-.067.134-.067.302-.1.436-.134.067 0 .1-.033.167-.033-.1 0-.1 0 0 0h.469c.1 0 .1 0 0 0 .034 0 .067 0 .1.033.168.034.335.067.47.134-.168-.067.033.034.066.034.1.033.168.1.268.167.034.034.201.168.067.034.067.033.1.1.168.134a.888.888 0 01.167.2c.034.034.034.068.067.101-.067-.067-.067-.067 0 0 .067.134.168.268.235.402.033.1.033.1 0 0 .033.033.033.1.033.134.034.067.034.134.067.234 0 .034.034.268.034.067 0 .1 0 .201.033.302a.83.83 0 00.837.837.85.85 0 00.838-.837 3.72 3.72 0 00-2.479-3.45c-1.406-.536-3.114-.1-4.086 1.038a3.707 3.707 0 00-.904 2.412.85.85 0 00.837.837c.536-.034.905-.402.905-.87zM67.51 48.462a25.016 25.016 0 015.46-.603c1.037 0 2.076.034 3.047.268.234.067.469.167.703.201.034 0-.2-.1 0 0 .034 0 .034.033.034.033.937.536 1.775-.904.837-1.44-.335-.2-.703-.301-1.072-.401-1.105-.269-2.277-.335-3.416-.369-2.01 0-4.12.201-6.062.67-1.038.268-.603 1.875.47 1.64zM54.616 46.855c-1.976-.47-4.052-.67-6.062-.67-1.138 0-2.277.067-3.382.335-.369.1-.77.2-1.105.401-.938.536-.101 2.01.837 1.44l.033-.033c.201-.1-.067 0 0 0 .235-.067.47-.167.704-.2 1.004-.235 2.009-.269 3.047-.269 1.809 0 3.684.201 5.46.603 1.07.234 1.506-1.373.468-1.608zM52.741 57.739a3.324 3.324 0 00-2.98-1.876 3.32 3.32 0 00-3.048 2.01l6.028-.134z" fill="#1E1E1E"></path><path d="M53.478 57.337c-.703-1.44-2.244-2.378-3.852-2.311-1.54.067-3.014 1.005-3.65 2.445-.134.268-.168.57 0 .837.134.234.435.435.737.402l5.291-.1c.268 0 .503 0 .77-.034a.83.83 0 00.838-.837.85.85 0 00-.837-.837l-5.292.1c-.268 0-.502 0-.77.033.234.436.468.838.736 1.273.067-.134.1-.268.201-.368.034-.067.067-.134.1-.168.034-.033.101-.167.034-.067.1-.1.168-.2.268-.301.067-.067.134-.1.201-.168-.067.067 0 0 .034-.033.1-.067.234-.168.368-.235.067-.033.134-.067.234-.1-.066.033 0 0 .034 0 .134-.034.268-.1.402-.1 0 0 .268-.034.134-.034h.234c.335 0 .47 0 .77.067.302.067.402.1.67.301.235.134.335.235.57.47.167.167.268.334.402.636.2.401.77.502 1.138.301.335-.268.436-.77.235-1.172zM75.28 57.739a3.324 3.324 0 00-2.98-1.876 3.32 3.32 0 00-3.048 2.01l6.028-.134z" fill="#1E1E1E"></path><path d="M75.983 57.337c-.703-1.44-2.244-2.378-3.851-2.311-1.54.067-3.014 1.005-3.65 2.445-.135.268-.168.57 0 .837.133.234.435.435.736.402l5.292-.1c.268 0 .502 0 .77-.034a.83.83 0 00.837-.837.85.85 0 00-.837-.837l-5.292.1c-.267 0-.502 0-.77.033.235.436.469.838.737 1.273.067-.134.1-.268.2-.368.034-.067.068-.134.101-.168.034-.033.1-.167.034-.067.1-.1.167-.2.268-.301.067-.067.134-.1.2-.168-.066.067 0 0 .034-.033.1-.067.235-.168.369-.235.067-.033.134-.067.234-.1-.067.033 0 0 .034 0 .133-.034.267-.1.401-.1 0 0 .268-.034.134-.034h.235c.335 0 .469 0 .77.067.302.067.402.1.67.301.234.134.335.235.57.47.167.167.267.334.401.636.201.401.77.502 1.139.301.335-.268.435-.77.234-1.172zM65.2 68.22c-.436.436-1.072.87-1.675.636-.435 1.005-1.44 1.44-2.579 1.44-1.172 0-2.177-.435-2.579-1.44-.602.235-1.239-.2-1.674-.636 0 0 2.244.703 4.253.703 2.01 0 4.254-.703 4.254-.703z" fill="#1E1E1E"></path><path d="M64.898 67.92c-.335.334-.77.67-1.24.502a.388.388 0 00-.468.2c-.77 1.675-3.718 1.675-4.454 0-.067-.167-.302-.234-.47-.2-.502.167-.904-.201-1.238-.503l-.402.704c1.406.435 2.913.736 4.354.736 1.473 0 2.98-.301 4.353-.736.503-.168.302-.972-.234-.804-1.34.402-2.746.703-4.153.703-1.373 0-2.813-.268-4.153-.703-.402-.134-.703.402-.402.703.536.536 1.273.971 2.077.737-.168-.067-.302-.134-.47-.201 1.006 2.21 4.89 2.21 5.895 0-.167.067-.301.134-.469.2.77.269 1.508-.2 2.077-.736.402-.368-.201-.971-.603-.603zM58.903 85.904c.033-.033.267-.2.133-.133a.73.73 0 01.268-.168c.1-.067.168-.1.268-.167.034-.034.1-.034.134-.067-.067.033-.067.033.034 0 .2-.067.435-.134.636-.168.067 0 .1-.033.168-.033H61.28c.067 0 .1.033.168.033.234.034.435.1.636.168.1.033.1.033.034 0 .033.033.1.033.134.067.1.033.2.1.267.167.101.067.168.1.268.168-.134-.1.1.1.134.133.335.302.871.336 1.173 0 .301-.334.335-.87 0-1.172-1.809-1.64-4.622-1.64-6.43 0a.81.81 0 000 1.172c.401.302.904.302 1.239 0zM68.504 75.361c-.843-.194-1.751-.26-2.627-.324-2.334-.13-4.668.065-6.97.421a44.667 44.667 0 00-5.48 1.233c-.713.194-.745 1.102-.194 1.49.843.585 1.816 1.006 2.756 1.395 1.848.746 3.89 1.167 5.868.908a7.973 7.973 0 003.664-1.427c.356-.26.519-.713.292-1.102-.195-.357-.746-.551-1.103-.292-1.62 1.167-3.599 1.492-5.479 1.167-1.654-.291-3.015-.81-4.377-1.556-.26-.162-.551-.324-.81-.486l-.195 1.459c4.377-1.297 9.046-1.978 13.585-1.46-.292-.032.097 0 .162.033.097 0 .162.033.26.033.064 0 .129.032.194.032 1.037.26 1.491-1.297.454-1.524zM47.75 84.33v12.424c0 1.072 1.675 1.072 1.675 0V85.87v-1.54c0-1.072-1.674-1.072-1.674 0zM72.232 84.665v12.057c0 1.072 1.675 1.072 1.675 0v-10.55-1.507c0-1.072-1.675-1.072-1.675 0z" fill="#1E1E1E"></path><path d="M40.236 95.228c.032.032.097.064.129.096.193.13-.129-.128 0 0 .064.065.16.13.225.194.45.354.901.74 1.352 1.126a54.176 54.176 0 014.378 4.217c3.863 4.153 7.178 9.013 8.852 14.486.226.708.419 1.448.547 2.189.161.804.258 1.609.58 2.382.611 1.448 1.964 2.575 3.509 2.897 1.577.322 3.187-.065 4.41-1.095a4.859 4.859 0 001.384-1.995c.29-.709.354-1.449.483-2.189 1.223-5.73 4.41-10.913 8.176-15.323 1.48-1.706 3.026-3.316 4.7-4.796.547-.483 1.094-.998 1.674-1.449.193-.16.386-.322.611-.483.065-.064.129-.096.226-.16.128-.097-.194.128.032 0a.445.445 0 01.128-.097c.355-.258.516-.708.29-1.095-.193-.354-.74-.547-1.094-.29-2.254 1.674-4.314 3.638-6.213 5.666-3.895 4.153-7.275 8.981-9.142 14.421a27.622 27.622 0 00-1.127 4.475c-.225 1.352-1.158 2.478-2.51 2.832a3.528 3.528 0 01-3.477-1.062c-.45-.515-.708-1.159-.837-1.835a26.85 26.85 0 00-.483-2.317c-1.48-5.698-4.764-10.816-8.595-15.194a57.21 57.21 0 00-4.603-4.668c-.837-.772-1.738-1.61-2.671-2.253-.033-.032-.065-.064-.13-.097-.353-.257-.9-.064-1.094.29-.225.419-.032.87.29 1.127z" fill="#fff"></path><path d="M44.164 89.558c-2.489.27-5.038.75-7.407 1.559-1.499.54-3.148 1.23-4.138 2.549-.39.51-.63 1.2-.57 1.859.09.87.57 1.709 1.02 2.429.9 1.409 1.95 2.728 3.059 3.988.12-.42.21-.84.33-1.26-2.37.66-4.738 1.44-7.077 2.279-4.288 1.53-8.606 3.269-12.504 5.668-1.77 1.109-3.598 2.398-4.738 4.168-.54.809.78 1.559 1.29.749.06-.09.09-.15.15-.21.03-.03.21-.27.09-.12.12-.15.27-.329.39-.479.269-.3.569-.6.899-.87.15-.15.33-.27.48-.42.09-.06.18-.15.27-.21-.09.09.03 0 .03-.03.06-.06.12-.09.21-.15.389-.299.809-.569 1.229-.839 1.859-1.2 3.838-2.189 5.847-3.119 3.628-1.649 7.496-3.028 11.334-4.228.81-.27 1.65-.509 2.49-.749.569-.15.689-.84.33-1.26-.87-.99-1.59-1.919-2.34-2.968-.27-.39-.51-.78-.75-1.17-.09-.18-.21-.36-.3-.54-.03-.09-.09-.15-.12-.24-.06-.12.03.12 0 0-.03-.06-.03-.09-.06-.15a.557.557 0 01-.06-.21c0-.03-.06-.27-.03-.15.03.12 0-.09 0-.12 0-.09.03-.239 0-.06.03-.119.06-.269.09-.389.06-.18-.06.12.03-.03l.09-.18c.03-.06.06-.12.12-.15.09-.15-.09.09 0 0 .03-.03.03-.06.06-.09.09-.12.21-.21.33-.33.06-.06.12-.09.18-.15l.09-.09c.15-.09.27-.21.42-.3.3-.18.63-.36.99-.509.09-.03.18-.09.27-.12l.15-.06c.18-.06.39-.15.57-.21 1.499-.54 3.088-.93 4.677-1.2.66-.12 1.32-.21 1.98-.33.149-.03-.18.03 0 0 .06 0 .12 0 .149-.03.09 0 .15-.03.24-.03.06 0 .15-.03.21-.03.39-.03.75-.299.75-.749 0-.33-.33-.75-.75-.72zM77.72 91.057c.209.03.419.06.629.06.18.03-.15-.03-.03 0 .06 0 .12.03.18.03.12.03.24.03.39.06.3.06.6.09.9.15 1.558.27 3.088.6 4.587 1.11.39.12.78.27 1.14.42.03.03.09.03.12.06-.12-.06 0 0 0 0 .09.03.18.09.27.12.18.09.33.15.509.24l.9.539c.18.12-.03-.03.09.09.06.06.12.09.18.15.12.09.21.21.33.33.03.03.03.06.06.09.12.12-.06-.09 0 0 .03.06.09.12.12.15l.09.18c.12.18 0-.03.03.06.03.12.06.24.09.39v.24c0-.21 0 0-.03.06s-.03.149-.06.209c0 .03-.09.24-.06.18.03-.03-.06.15-.09.21-.18.39-.42.75-.63 1.14-.84 1.319-1.71 2.398-2.76 3.598-.359.419-.24 1.079.33 1.259 2.31.66 4.589 1.409 6.837 2.219 4.198 1.499 8.336 3.118 12.175 5.457.509.3.989.63 1.469.96.21.15.42.3.63.48.18.15-.06-.06.03.03.06.06.12.09.18.15.09.09.179.149.299.239.36.3.72.63 1.05.99.15.15.3.33.42.48.03.03.15.18.03.03.03.03.06.09.09.12l.18.27c.539.809 1.829.06 1.289-.75-1.02-1.559-2.549-2.729-4.108-3.748-1.889-1.23-3.928-2.249-5.967-3.179-3.808-1.709-7.737-3.148-11.725-4.408-.84-.27-1.679-.509-2.519-.749.12.419.21.839.33 1.259a35.705 35.705 0 002.67-3.388c.899-1.32 1.918-2.909 1.079-4.498-.75-1.38-2.4-2.13-3.779-2.669-1.589-.6-3.238-1.02-4.917-1.32-1.02-.18-2.07-.36-3.089-.48-.39-.03-.75.36-.75.75.06.33.39.6.81.63z" fill="#1E1E1E"></path><defs><filter id="face-welcome_svg__filter0_i_369_80" x="0" y="15.091" width="120" height="124" filterUnits="userSpaceOnUse" color-interpolation-filters="sRGB"><feFlood flood-opacity="0" result="BackgroundImageFix"></feFlood><feBlend in="SourceGraphic" in2="BackgroundImageFix" result="shape"></feBlend><feColorMatrix in="SourceAlpha" values="0 0 0 0 0 0 0 0 0 0 0 0 0 0 0 0 0 0 127 0" result="hardAlpha"></feColorMatrix><feOffset dy="-4"></feOffset><feGaussianBlur stdDeviation="4"></feGaussianBlur><feComposite in2="hardAlpha" operator="arithmetic" k2="-1" k3="1"></feComposite><feColorMatrix values="0 0 0 0 0.509804 0 0 0 0 0.509804 0 0 0 0 0.509804 0 0 0 0.24 0"></feColorMatrix><feBlend in2="shape" result="effect1_innerShadow_369_80"></feBlend></filter></defs></svg>